<?xml version="1.0" standalone="no"?>
<!DOCTYPE svg PUBLIC "-//W3C//DTD SVG 20010904//EN"
 "http://www.w3.org/TR/2001/REC-SVG-20010904/DTD/svg10.dtd">
<svg version="1.0" xmlns="http://www.w3.org/2000/svg"
 width="160.000000pt" height="144.000000pt" viewBox="0 0 160.000000 144.000000"
 preserveAspectRatio="xMidYMid meet">

<g transform="translate(0.000000,144.000000) scale(0.100000,-0.100000)"
fill="#000000" stroke="none">
<path d="M652 908 c-9 -9 -12 -69 -12 -211 l0 -198 38 3 37 3 3 150 3 150 70
-135 c88 -167 92 -172 143 -168 l41 3 0 205 0 205 -30 0 -30 0 -5 -142 -5
-143 -68 130 c-38 71 -78 137 -90 145 -26 18 -78 20 -95 3z"/>
<path d="M1105 653 c-29 -7 -45 -23 -45 -44 0 -22 -2 -22 39 -8 24 8 35 8 46
-1 27 -22 16 -55 -40 -120 -79 -94 -76 -100 40 -100 88 0 95 1 95 20 0 18 -7
20 -55 20 -30 0 -55 3 -55 6 0 4 20 28 44 54 96 102 55 203 -69 173z"/>
</g>
</svg>
