<?xml version="1.0" standalone="no"?>
<!DOCTYPE svg PUBLIC "-//W3C//DTD SVG 20010904//EN"
 "http://www.w3.org/TR/2001/REC-SVG-20010904/DTD/svg10.dtd">
<svg version="1.0" xmlns="http://www.w3.org/2000/svg"
 width="161.000000pt" height="157.000000pt" viewBox="0 0 161.000000 157.000000"
 preserveAspectRatio="xMidYMid meet">

<g transform="translate(0.000000,157.000000) scale(0.100000,-0.100000)"
fill="#000000" stroke="none">
<path d="M644 1026 c-65 -29 -100 -109 -91 -208 10 -114 64 -161 177 -156 114
6 164 65 165 193 0 125 -54 185 -165 185 -30 -1 -69 -7 -86 -14z m143 -56 c1
0 9 -13 18 -30 9 -17 15 -55 15 -94 0 -58 -3 -69 -28 -97 -24 -26 -35 -31 -72
-31 -29 1 -50 7 -62 20 -40 40 -46 156 -11 209 19 28 68 43 108 31 16 -4 31
-8 32 -8z"/>
<path d="M952 758 c-12 -12 -17 -38 -7 -38 2 0 15 5 29 11 20 9 29 9 41 -1 25
-21 18 -46 -30 -104 -64 -79 -61 -86 30 -86 60 0 75 3 75 15 0 11 -12 15 -52
15 l-52 0 31 33 c64 69 80 118 47 151 -18 19 -94 22 -112 4z"/>
</g>
</svg>
